<?xml version="1.0" encoding="utf-8"?>
<!-- Generator: Adobe Illustrator 26.3.1, SVG Export Plug-In . SVG Version: 6.00 Build 0)  -->
<svg version="1.1" id="Capa_1" xmlns="http://www.w3.org/2000/svg" xmlns:xlink="http://www.w3.org/1999/xlink" x="0px" y="0px"
	 viewBox="0 0 576 512" style="enable-background:new 0 0 576 512;" xml:space="preserve">
<style type="text/css">
	.st0{fill:#FFFFFF;}
</style>
<path class="st0" d="M572.5,238.1C518.3,115.5,410.9,32,288,32S57.7,115.6,3.5,238.1C1.6,243.4,0,251,0,256c0,5,1.6,12.6,3.5,17
	C57.7,396.5,165.1,480,288,480s230.3-83.6,284.5-206.1c1.9-5.3,3.5-13.8,3.5-17.9C576,251,574.4,243.4,572.5,238.1z M432,256
	c0,79.5-64.5,144-143.9,144C208.6,400,144,335.5,144,256s64.5-144,144-144S432,176.5,432,256z M288,160c-2.3,0-5.6,0.4-8.5,0.8
	c5.3,9.2,8.5,19.8,8.5,31.2c0,35.4-28.6,64-64,64c-11.4,0-22.9-3.3-31.3-8.5c-0.3,3-0.7,6.1-0.7,8.5c0,52.1,43,96,96,96s96-43,96-96
	S340.1,160,288,160z"/>
</svg>
