<?xml version="1.0" encoding="utf-8"?>
<!-- Generator: Adobe Illustrator 26.3.1, SVG Export Plug-In . SVG Version: 6.00 Build 0)  -->
<svg version="1.1" id="Capa_1" xmlns="http://www.w3.org/2000/svg" xmlns:xlink="http://www.w3.org/1999/xlink" x="0px" y="0px"
	 viewBox="0 0 512 512" style="enable-background:new 0 0 512 512;" xml:space="preserve">
<style type="text/css">
	.st0{fill:#FFFFFF;}
</style>
<path class="st0" d="M256,287.4V32c0-17.7-14.3-32-32-32s-32,14.3-32,32v216.3C218.7,248.4,243.7,263.1,256,287.4z M170.8,251.2
	c2.5-0.8,5-1,7.6-1.5l-85-198.3C88.2,39.2,76.3,32,64,32c-21,0-32,18-32,32c0,4.2,0.8,8.5,2.6,12.6l82,191.3L170.8,251.2z M416,224
	c-17.7,0-32,14.3-32,32v64c0,17.7,14.3,32,32,32s32-14.3,32-32v-64C448,238.3,433.7,224,416,224z M320,352c17.7,0,32-14.3,32-32v-96
	c0-17.7-14.3-32-32-32s-32,14.3-32,32v96C288,337.7,302.3,352,320,352z M368,361.9c-11.7,13.4-28.8,22.1-48,22.1
	c-27.4,0-50.6-17.3-59.7-41.5c-7.1,21.4-23.9,39.2-47.1,46.4l-48,14.8c-1.6,0.5-3.1,0.7-4.7,0.7c-6.3,0-12.2-3.7-14.7-9.8
	c-0.9-2-1.3-4.1-1.3-6.2c0-6.8,4.4-13.2,11.3-15.3l46.4-14.3c17.2-5.3,29.8-21,29.8-38.6c0-34.2-32.5-40.1-40-40.1
	c-3.9,0-7.8,0.6-11.8,1.8l-104,32C58,319.4,48,336,48,352c0,4.3,0.7,8.5,2.1,12.7L68.2,419c18.5,55.5,70.5,93,129,93H272
	c82.5,0,151.8-57.2,170.7-134c-8.1,3.8-17.1,6-26.7,6C396.8,384,379.7,375.3,368,361.9z"/>
</svg>
