<?xml version="1.0" encoding="utf-8"?>
<!-- Generator: Adobe Illustrator 26.3.1, SVG Export Plug-In . SVG Version: 6.00 Build 0)  -->
<svg version="1.1" id="Capa_1" xmlns="http://www.w3.org/2000/svg" xmlns:xlink="http://www.w3.org/1999/xlink" x="0px" y="0px"
	 viewBox="0 0 512 512" style="enable-background:new 0 0 512 512;" xml:space="preserve">
<style type="text/css">
	.st0{fill:#FFFFFF;}
</style>
<path class="st0" d="M175.2,288.9c-24.3,2.2-47,12.2-64.4,29.7c-22.4,22.5-32.3,52.9-29.7,82.4c2.3,25.8-17,46.1-49,46.1
	C14.3,448,0,462.3,0,480s14.3,32,32,32h53.8c54.6,0,133.2-7.6,172.3-46.9c23.7-23.8,32.5-56.4,28.2-87.4L175.2,288.9z M499.5,17.5
	c-9-10.3-21.4-16.4-35-17.3c-13.5-1-26.7,3.6-36.9,12.6l-205.3,181c-6.5,5.7-12.2,12.5-16.6,19.4c-9.5,14.9-13.8,31.7-13.8,48.2
	l110.3,88.2c23-5.4,42.7-19.3,55.4-39.4L504,78.4C516.2,59.5,514.2,34.4,499.5,17.5z"/>
</svg>
